<?xml version="1.0" encoding="UTF-8" standalone="no"?>
<svg
   viewBox="0 0 192 192"
   version="1.1"
   id="svg8"
   sodipodi:docname="splash-icon-dark.svg"
   inkscape:version="1.2.1 (9c6d41e, 2022-07-14)"
   inkscape:export-filename="../../../../../../../htdocs/nectar/classic/res/android/splash-screens/splash-icon-dark.png"
   inkscape:export-xdpi="120"
   inkscape:export-ydpi="120"
   width="192"
   height="192"
   xmlns:inkscape="http://www.inkscape.org/namespaces/inkscape"
   xmlns:sodipodi="http://sodipodi.sourceforge.net/DTD/sodipodi-0.dtd"
   xmlns="http://www.w3.org/2000/svg"
   xmlns:svg="http://www.w3.org/2000/svg"
   xmlns:rdf="http://www.w3.org/1999/02/22-rdf-syntax-ns#"
   xmlns:cc="http://creativecommons.org/ns#"
   xmlns:dc="http://purl.org/dc/elements/1.1/">
  <metadata
     id="metadata14">
    <rdf:RDF>
      <cc:Work
         rdf:about="">
        <dc:format>image/svg+xml</dc:format>
        <dc:type
           rdf:resource="http://purl.org/dc/dcmitype/StillImage" />
      </cc:Work>
    </rdf:RDF>
  </metadata>
  <defs
     id="defs12" />
  <sodipodi:namedview
     pagecolor="#ffffff"
     bordercolor="#666666"
     borderopacity="1"
     objecttolerance="10"
     gridtolerance="10"
     guidetolerance="10"
     inkscape:pageopacity="0"
     inkscape:pageshadow="2"
     inkscape:window-width="1440"
     inkscape:window-height="781"
     id="namedview10"
     showgrid="false"
     inkscape:zoom="1.3037281"
     inkscape:cx="125.40959"
     inkscape:cy="80.15475"
     inkscape:window-x="0"
     inkscape:window-y="25"
     inkscape:window-maximized="0"
     inkscape:current-layer="svg8"
     inkscape:showpageshadow="2"
     inkscape:pagecheckerboard="0"
     inkscape:deskcolor="#d1d1d1"
     inkscape:lockguides="true" />
  <path
     d="M 120.11567,119.88 H 91.903953 v -3.42147 q 0.8904,-0.0938 2.155724,-0.23435 1.265299,-0.14058 1.921388,-0.46869 0.984119,-0.51557 1.405895,-1.49983 0.42176,-0.98425 0.42176,-2.9059 V 89.414845 q 0,-4.780698 -1.780789,-7.171037 -1.733954,-2.437216 -5.154971,-2.437216 -1.874533,0 -3.514752,0.562445 -1.593349,0.562427 -3.139837,1.640427 -1.35905,0.937384 -2.202579,1.921648 -0.796677,0.984256 -1.359047,1.734171 v 25.168907 q 0,1.64044 0.46864,2.76531 0.46864,1.07799 1.546488,1.64043 0.749823,0.42181 1.874536,0.74991 1.12472,0.32804 2.202584,0.46869 V 119.88 H 58.256089 v -3.42147 q 1.171578,-0.0938 2.343162,-0.23435 1.218446,-0.18746 2.06199,-0.46869 1.499624,-0.51557 2.061984,-1.59356 0.562354,-1.078 0.562354,-2.81217 V 84.071712 q 0,-1.452957 -0.74981,-2.859041 Q 63.785952,79.806593 62.567505,78.91608 61.723968,78.353649 60.411792,77.978689 59.146493,77.603731 57.6,77.46312 v -3.421472 l 22.353807,-1.218608 0.702945,0.703053 v 6.796072 h 0.18746 q 1.312176,-1.171736 3.186711,-2.81218 1.874529,-1.640417 3.467889,-2.671552 1.733944,-1.124872 4.545744,-1.921664 2.811788,-0.796769 5.9985,-0.796769 7.638724,0 11.434654,4.358859 3.84278,4.311998 3.84278,11.48303 v 22.966041 q 0,1.73417 0.51552,2.7653 0.51552,1.03112 1.92139,1.64043 0.74981,0.32812 1.82767,0.65618 1.12473,0.32803 2.53061,0.46869 z"
     id="path4"
     inkscape:connector-curvature="0"
     style="fill:#ffffff;stroke-width:0.12;fill-opacity:1" />
  <path
     d="m 134.37248,111.43348 c -0.18597,2.46144 -1.26624,4.52628 -3.24081,6.19452 -1.94341,1.67059 -4.16127,2.41171 -6.65354,2.22338 -2.52343,-0.1907 -0.53385,-4.51453 -2.23773,-6.42942 -1.67037,-1.94368 -6.51463,-0.89075 -6.32632,-3.38335 0.18832,-2.4926 1.25417,-4.57419 3.1976,-6.24479 1.97694,-1.69939 4.22712,-2.45375 6.75054,-2.26305 2.49228,0.18832 4.57242,1.26992 6.24043,3.24475 1.69919,1.9772 2.45579,4.19651 2.26983,6.65796 z"
     id="path6"
     inkscape:connector-curvature="0"
     style="fill:#fbbd0d;stroke-width:0.12" />
</svg>
