<svg xmlns="http://www.w3.org/2000/svg" viewBox="0 0 1024 1024">
    <path class="background" fill="#FFFFFF" d="M1024 512a512 512 0 0 1-512 512A512 512 0 0 1 0 512 512 512 0 0 1 512 0a512 512 0 0 1 512 512z" />
    <path class="text" fill="#1C1C1C" d="M712.964 711H477.866v-28.512q7.42-.781 17.965-1.953 10.544-1.172 16.011-3.906 8.201-4.296 11.716-12.499 3.515-8.202 3.515-24.215V457.124q0-39.84-14.84-59.759-14.45-20.31-42.958-20.31-15.621 0-29.29 4.687-13.278 4.687-26.165 13.67-11.326 7.812-18.355 16.014-6.639 8.202-11.325 14.451v209.741q0 13.67 3.905 23.044 3.905 8.984 12.887 13.67 6.249 3.516 15.621 6.25 9.373 2.734 18.355 3.906V711h-237.44v-28.512q9.763-.781 19.526-1.953 10.153-1.563 17.183-3.906 12.497-4.296 17.183-13.28 4.686-8.983 4.686-23.434V412.598q0-12.108-6.248-23.826-6.248-11.717-16.402-19.138-7.03-4.687-17.964-7.812-10.545-3.124-23.432-4.296v-28.512l186.282-10.155 5.858 5.858v56.634h1.562q10.934-9.764 26.556-23.435 15.62-13.67 28.899-22.262 14.45-9.374 37.88-16.014Q502.47 313 529.026 313q63.656 0 95.29 36.324 32.022 35.933 32.022 95.692v191.383q0 14.452 4.296 23.045 4.296 8.592 16.012 13.67 6.248 2.734 15.23 5.468 9.373 2.734 21.089 3.906z" />
    <path fill="#FBBD0D" d="M831.77 640.612c-1.549 20.512-10.551 37.72-27.006 51.621-16.195 13.922-34.677 20.098-55.446 18.528-21.029-1.589-4.449-37.62-18.648-53.578-13.92-16.197-54.289-7.423-52.72-28.195 1.57-20.771 10.452-38.118 26.647-52.04 16.475-14.161 35.226-20.447 56.255-18.858 20.769 1.57 38.103 10.582 52.003 27.04 14.16 16.476 20.465 34.97 18.916 55.482z" />
    <style>
        @media (prefers-color-scheme: dark) {
            .background {
                fill: #1C1C1C;
            }
            .text {
                fill: #FFFFFF;
            }
        }
    </style>
</svg>