<?xml version="1.0" encoding="UTF-8" standalone="no"?>
<!-- Created with Inkscape (http://www.inkscape.org/) -->

<svg
   width="192"
   height="192"
   viewBox="0 0 192 192"
   version="1.1"
   id="svg8"
   inkscape:version="1.2.1 (9c6d41e, 2022-07-14)"
   sodipodi:docname="shortcut-icon-web-apis.svg"
   inkscape:export-filename="../../../../../../../../htdocs/nectar/classic/www/assets/custom/favicon/shortcut-icon-web-apis.png"
   inkscape:export-xdpi="96"
   inkscape:export-ydpi="96"
   xmlns:inkscape="http://www.inkscape.org/namespaces/inkscape"
   xmlns:sodipodi="http://sodipodi.sourceforge.net/DTD/sodipodi-0.dtd"
   xmlns="http://www.w3.org/2000/svg"
   xmlns:svg="http://www.w3.org/2000/svg"
   xmlns:rdf="http://www.w3.org/1999/02/22-rdf-syntax-ns#"
   xmlns:cc="http://creativecommons.org/ns#"
   xmlns:dc="http://purl.org/dc/elements/1.1/">
  <defs
     id="defs2">
    <pattern
       y="0"
       x="0"
       height="6"
       width="6"
       patternUnits="userSpaceOnUse"
       id="EMFhbasepattern" />
  </defs>
  <sodipodi:namedview
     id="base"
     pagecolor="#ffffff"
     bordercolor="#666666"
     borderopacity="1.0"
     inkscape:pageopacity="0.0"
     inkscape:pageshadow="2"
     inkscape:zoom="1.979899"
     inkscape:cx="122.98607"
     inkscape:cy="85.357889"
     inkscape:document-units="px"
     inkscape:current-layer="layer1"
     showgrid="false"
     units="px"
     inkscape:showpageshadow="false"
     inkscape:window-width="1440"
     inkscape:window-height="790"
     inkscape:window-x="0"
     inkscape:window-y="25"
     inkscape:window-maximized="0"
     inkscape:pagecheckerboard="0"
     inkscape:deskcolor="#d1d1d1" />
  <metadata
     id="metadata5">
    <rdf:RDF>
      <cc:Work
         rdf:about="">
        <dc:format>image/svg+xml</dc:format>
        <dc:type
           rdf:resource="http://purl.org/dc/dcmitype/StillImage" />
        <dc:title />
      </cc:Work>
    </rdf:RDF>
  </metadata>
  <g
     inkscape:label="Layer 1"
     inkscape:groupmode="layer"
     id="layer1"
     transform="translate(0,-246.19998)">
    <circle
       style="fill:#ff9800;fill-opacity:1;stroke-width:1.14158392"
       id="path815"
       cx="96"
       cy="342.19998"
       r="96" />
    <path
       d="m 85.197762,379.06523 c 1.650844,0.46226 3.26883,-0.46225 3.797149,-2.24522 l 19.712079,-67.55612 c 0.49529,-1.78314 -0.33014,-3.43399 -1.98115,-3.92928 -1.65085,-0.46225 -3.26883,0.46226 -3.79715,2.24523 l -19.679049,67.55629 c -0.495288,1.78297 0.297103,3.43382 1.948121,3.9291 z m 32.820438,-11.98565 24.83028,-22.41973 c 1.55192,-1.38677 1.51872,-3.56611 0,-4.91985 L 118.0182,317.32027 c -1.35374,-1.28768 -3.23563,-1.25465 -4.39136,0.033 -1.15573,1.28785 -0.95755,3.13688 0.36316,4.3585 l 22.65078,20.47161 -22.65078,20.50464 c -1.32071,1.22162 -1.51889,3.07065 -0.36316,4.3585 1.15573,1.28768 3.03762,1.28768 4.39136,0.033 z m -44.112794,0.033 c 1.386771,1.25465 3.2358,1.22162 4.391356,-0.0661 1.15573,-1.28785 0.990576,-3.10385 -0.330134,-4.32547 L 55.315682,342.21644 77.966628,321.7118 c 1.32071,-1.22162 1.485864,-3.03762 0.330134,-4.3585 -1.155556,-1.28768 -3.004585,-1.28768 -4.391356,-0.033 l -24.830109,22.41973 c -1.518894,1.38677 -1.345959,3.56593 0,4.91985 z"
       id="path114"
       style="fill:#ffffff;stroke-width:1.72936" />
  </g>
</svg>
