<?xml version="1.0" encoding="UTF-8" standalone="no"?>
<!-- Created with Inkscape (http://www.inkscape.org/) -->

<svg
   width="192"
   height="192"
   viewBox="0 0 192 192"
   version="1.1"
   id="svg8"
   inkscape:version="1.2.1 (9c6d41e, 2022-07-14)"
   sodipodi:docname="shortcut-icon-components.svg"
   inkscape:export-filename="../../../../../../../../htdocs/nectar/classic/www/assets/custom/favicon/shortcut-icon-components.png"
   inkscape:export-xdpi="96"
   inkscape:export-ydpi="96"
   xmlns:inkscape="http://www.inkscape.org/namespaces/inkscape"
   xmlns:sodipodi="http://sodipodi.sourceforge.net/DTD/sodipodi-0.dtd"
   xmlns="http://www.w3.org/2000/svg"
   xmlns:svg="http://www.w3.org/2000/svg"
   xmlns:rdf="http://www.w3.org/1999/02/22-rdf-syntax-ns#"
   xmlns:cc="http://creativecommons.org/ns#"
   xmlns:dc="http://purl.org/dc/elements/1.1/">
  <defs
     id="defs2">
    <pattern
       y="0"
       x="0"
       height="6"
       width="6"
       patternUnits="userSpaceOnUse"
       id="EMFhbasepattern" />
  </defs>
  <sodipodi:namedview
     id="base"
     pagecolor="#ffffff"
     bordercolor="#666666"
     borderopacity="1.0"
     inkscape:pageopacity="0.0"
     inkscape:pageshadow="2"
     inkscape:zoom="1.979899"
     inkscape:cx="124.5013"
     inkscape:cy="85.357889"
     inkscape:document-units="px"
     inkscape:current-layer="layer1"
     showgrid="false"
     units="px"
     inkscape:showpageshadow="false"
     inkscape:window-width="1440"
     inkscape:window-height="790"
     inkscape:window-x="0"
     inkscape:window-y="25"
     inkscape:window-maximized="0"
     inkscape:pagecheckerboard="0"
     inkscape:deskcolor="#d1d1d1" />
  <metadata
     id="metadata5">
    <rdf:RDF>
      <cc:Work
         rdf:about="">
        <dc:format>image/svg+xml</dc:format>
        <dc:type
           rdf:resource="http://purl.org/dc/dcmitype/StillImage" />
        <dc:title />
      </cc:Work>
    </rdf:RDF>
  </metadata>
  <g
     inkscape:label="Layer 1"
     inkscape:groupmode="layer"
     id="layer1"
     transform="translate(0,-246.19998)">
    <circle
       style="fill:#4caf50;fill-opacity:1;stroke-width:1.14158392"
       id="path815"
       cx="96"
       cy="342.19998"
       r="96" />
    <path
       d="m 110.3137,337.89775 h 23.72623 c 6.67461,0 9.96007,-3.3373 9.96007,-10.22038 V 304.3683 c 0,-6.8833 -3.28546,-10.16832 -9.96007,-10.16832 H 110.3137 c -6.62233,0 -9.95963,3.28502 -9.95963,10.16832 v 23.30907 c 0,6.88308 3.3373,10.22038 9.95963,10.22038 z m -52.353849,0 h 23.778297 c 6.62232,0 9.95962,-3.3373 9.95962,-10.22038 V 304.3683 c 0,-6.8833 -3.3373,-10.16832 -9.95962,-10.16832 H 57.959851 C 51.337304,294.19998 48,297.485 48,304.3683 v 23.30907 c 0,6.88308 3.337304,10.22038 9.959851,10.22038 z m 0,52.30179 h 23.778297 c 6.62232,0 9.95962,-3.28502 9.95962,-10.16832 v -23.36113 c 0,-6.83102 -3.3373,-10.16832 -9.95962,-10.16832 H 57.959851 C 51.337304,346.50177 48,349.83907 48,356.67009 v 23.36113 c 0,6.8833 3.337304,10.16832 9.959851,10.16832 z m 52.353849,0 h 23.72623 c 6.67461,0 9.96007,-3.28502 9.96007,-10.16832 v -23.36113 c 0,-6.83102 -3.28546,-10.16832 -9.96007,-10.16832 H 110.3137 c -6.62233,0 -9.95963,3.3373 -9.95963,10.16832 v 23.36113 c 0,6.8833 3.3373,10.16832 9.95963,10.16832 z"
       id="path10"
       style="fill:#ffffff;stroke-width:2.22487" />
  </g>
</svg>
