<?xml version="1.0" encoding="UTF-8" standalone="no"?>
<!-- Created with Inkscape (http://www.inkscape.org/) -->

<svg
   width="192"
   height="192"
   viewBox="0 0 192 192"
   version="1.1"
   id="svg8"
   inkscape:version="1.2.1 (9c6d41e, 2022-07-14)"
   sodipodi:docname="shortcut-icon-screens.svg"
   inkscape:export-filename="../../../../../../../../htdocs/nectar/classic/www/assets/custom/favicon/shortcut-icon-screens.png"
   inkscape:export-xdpi="96"
   inkscape:export-ydpi="96"
   xmlns:inkscape="http://www.inkscape.org/namespaces/inkscape"
   xmlns:sodipodi="http://sodipodi.sourceforge.net/DTD/sodipodi-0.dtd"
   xmlns="http://www.w3.org/2000/svg"
   xmlns:svg="http://www.w3.org/2000/svg"
   xmlns:rdf="http://www.w3.org/1999/02/22-rdf-syntax-ns#"
   xmlns:cc="http://creativecommons.org/ns#"
   xmlns:dc="http://purl.org/dc/elements/1.1/">
  <defs
     id="defs2">
    <pattern
       y="0"
       x="0"
       height="6"
       width="6"
       patternUnits="userSpaceOnUse"
       id="EMFhbasepattern" />
  </defs>
  <sodipodi:namedview
     id="base"
     pagecolor="#ffffff"
     bordercolor="#666666"
     borderopacity="1.0"
     inkscape:pageopacity="0.0"
     inkscape:pageshadow="2"
     inkscape:zoom="1.979899"
     inkscape:cx="123.49115"
     inkscape:cy="85.357889"
     inkscape:document-units="px"
     inkscape:current-layer="layer1"
     showgrid="false"
     units="px"
     inkscape:showpageshadow="false"
     inkscape:window-width="1440"
     inkscape:window-height="790"
     inkscape:window-x="0"
     inkscape:window-y="25"
     inkscape:window-maximized="0"
     inkscape:pagecheckerboard="0"
     inkscape:deskcolor="#d1d1d1" />
  <metadata
     id="metadata5">
    <rdf:RDF>
      <cc:Work
         rdf:about="">
        <dc:format>image/svg+xml</dc:format>
        <dc:type
           rdf:resource="http://purl.org/dc/dcmitype/StillImage" />
        <dc:title />
      </cc:Work>
    </rdf:RDF>
  </metadata>
  <g
     inkscape:label="Layer 1"
     inkscape:groupmode="layer"
     id="layer1"
     transform="translate(0,-246.19998)">
    <circle
       style="fill:#2196f3;fill-opacity:1;stroke-width:1.14158392"
       id="path815"
       cx="96"
       cy="342.19998"
       r="96" />
    <path
       fill-rule="evenodd"
       d="m 132.78135,360.55608 9.18807,3.89585 c 0.55618,0.34761 1.02588,0.81731 1.37349,1.37349 1.26425,2.0228 0.64931,4.68749 -1.37349,5.95177 l -32.2346,13.66792 c -8.40341,3.09254 -19.066237,3.09254 -27.469637,0 L 50.030576,371.77719 c -0.55617,-0.34763 -1.025874,-0.81734 -1.373482,-1.37349 -1.264256,-2.02282 -0.649326,-4.68751 1.373482,-5.95177 l 9.18806,-3.89585 23.046547,9.77206 c 8.4034,3.09254 19.066227,3.09254 27.469637,0 z m 0,-25.91481 9.18807,3.89586 c 0.55618,0.3476 1.02588,0.81731 1.37349,1.37348 1.26425,2.02281 0.64931,4.6875 -1.37349,5.95177 l -32.2346,13.66792 c -8.40341,3.09255 -19.066237,3.09255 -27.469637,0 L 50.030576,345.86238 c -0.55617,-0.34762 -1.025874,-0.81733 -1.373482,-1.37348 -1.264256,-2.02283 -0.649326,-4.68752 1.373482,-5.95177 l 9.18806,-3.89586 23.046547,9.77206 c 8.4034,3.09255 19.066227,3.09255 27.469637,0 z m -23.04653,-35.68687 32.2346,13.66792 c 0.55618,0.34761 1.02588,0.81731 1.37349,1.37349 1.26425,2.0228 0.64931,4.68749 -1.37349,5.95176 l -32.2346,13.66793 c -8.40341,3.09254 -19.066237,3.09254 -27.469637,0 L 50.030576,319.94757 c -0.55617,-0.34762 -1.025874,-0.81733 -1.373482,-1.37348 -1.264256,-2.02282 -0.649326,-4.68751 1.373482,-5.95177 L 82.265183,298.9544 c 8.4034,-3.09256 19.066227,-3.09256 27.469637,0 z"
       id="path1210"
       style="stroke-width:2.15957;fill:#ffffff" />
  </g>
</svg>
