<?xml version="1.0" encoding="UTF-8" standalone="no"?>
<svg
   viewBox="0 0 2732 2732"
   version="1.1"
   id="svg8"
   sodipodi:docname="Default@2x~universal~anyany~light.svg"
   inkscape:export-filename="../../../../../../../htdocs/nectar/classic/res/ios/splash-screens/Default@2x~universal~anyany~light.png"
   inkscape:export-xdpi="96"
   inkscape:export-ydpi="96"
   inkscape:version="1.2.1 (9c6d41e, 2022-07-14)"
   width="2732"
   height="2732"
   xmlns:inkscape="http://www.inkscape.org/namespaces/inkscape"
   xmlns:sodipodi="http://sodipodi.sourceforge.net/DTD/sodipodi-0.dtd"
   xmlns="http://www.w3.org/2000/svg"
   xmlns:svg="http://www.w3.org/2000/svg"
   xmlns:rdf="http://www.w3.org/1999/02/22-rdf-syntax-ns#"
   xmlns:cc="http://creativecommons.org/ns#"
   xmlns:dc="http://purl.org/dc/elements/1.1/">
  <metadata
     id="metadata14">
    <rdf:RDF>
      <cc:Work
         rdf:about="">
        <dc:format>image/svg+xml</dc:format>
        <dc:type
           rdf:resource="http://purl.org/dc/dcmitype/StillImage" />
      </cc:Work>
    </rdf:RDF>
  </metadata>
  <defs
     id="defs12" />
  <sodipodi:namedview
     pagecolor="#ffffff"
     bordercolor="#666666"
     borderopacity="1"
     objecttolerance="10"
     gridtolerance="10"
     guidetolerance="10"
     inkscape:pageopacity="0"
     inkscape:pageshadow="2"
     inkscape:window-width="1309"
     inkscape:window-height="781"
     id="namedview10"
     showgrid="false"
     inkscape:zoom="0.23046875"
     inkscape:cx="1050.0339"
     inkscape:cy="1529.4915"
     inkscape:window-x="0"
     inkscape:window-y="25"
     inkscape:window-maximized="0"
     inkscape:current-layer="svg8"
     inkscape:showpageshadow="2"
     inkscape:pagecheckerboard="0"
     inkscape:deskcolor="#d1d1d1" />
  <path
     fill="#ffffff"
     d="M 0,0 V 2732 H 2732 V 0 Z"
     id="path2"
     style="stroke-width:2.66797" />
  <path
     fill="#1c1c1c"
     d="m 1466.4819,1465.5 h -117.5488 v -14.2561 q 3.71,-0.3906 8.9822,-0.9765 5.2721,-0.5858 8.0058,-1.9529 4.1005,-2.1482 5.8579,-6.2493 1.7573,-4.101 1.7573,-12.1079 v -91.3955 q 0,-19.9195 -7.4199,-29.8793 -7.2248,-10.155 -21.479,-10.155 -7.8106,0 -14.6448,2.3435 -6.639,2.3434 -13.0827,6.8351 -5.6627,3.9057 -9.1774,8.0068 -3.3195,4.1011 -5.6627,7.2258 v 104.8704 q 0,6.8352 1.9527,11.5221 1.9526,4.4916 6.4437,6.8351 3.1242,1.7576 7.8105,3.1247 4.6863,1.367 9.1775,1.9529 V 1465.5 h -118.7205 v -14.2561 q 4.8816,-0.3906 9.7632,-0.9765 5.0769,-0.7811 8.5916,-1.9529 6.2484,-2.1482 8.5916,-6.6398 2.3432,-4.4917 2.3432,-11.7174 v -113.6585 q 0,-6.054 -3.1242,-11.9127 -3.1243,-5.8586 -8.2011,-9.5691 -3.5148,-2.3435 -8.9822,-3.9058 -5.2721,-1.5624 -11.7158,-2.1482 v -14.2561 l 93.1409,-5.0776 2.9289,2.9294 v 28.317 h 0.7811 q 5.4674,-4.8823 13.2779,-11.7174 7.8106,-6.8351 14.4496,-11.1315 7.2247,-4.687 18.9406,-8.0069 11.7158,-3.3199 24.9937,-3.3199 31.828,0 47.6444,18.1619 16.0116,17.9667 16.0116,47.846 v 95.6918 q 0,7.2257 2.148,11.5221 2.1479,4.2963 8.0058,6.8351 3.1242,1.367 7.6153,2.7341 4.6863,1.367 10.5442,1.9529 z"
     id="path4"
     style="stroke-width:0.5" />
  <path
     fill="#fbbd0d"
     d="m 1525.8854,1430.3061 c -0.7749,10.2561 -5.276,18.8596 -13.5034,25.8106 -8.0976,6.9607 -17.3386,10.0488 -27.7232,9.264 -10.5142,-0.7945 -2.2243,-18.8105 -9.3238,-26.7893 -6.9599,-8.0986 -27.1443,-3.7114 -26.3596,-14.0972 0.7845,-10.3858 5.2256,-19.0591 13.3233,-26.02 8.2372,-7.0808 17.613,-10.2239 28.1272,-9.4293 10.3845,0.7847 19.0517,5.2913 26.0018,13.5198 7.08,8.2383 10.2325,17.4854 9.4577,27.7414 z"
     id="path6"
     style="stroke-width:0.5" />
</svg>
