<?xml version="1.0" encoding="UTF-8" standalone="no"?>
<svg
   viewBox="0 0 192 192"
   version="1.1"
   id="svg8"
   sodipodi:docname="launch-icon.svg"
   inkscape:export-filename="../../../../../../../htdocs/nectar/classic/res/android/launch-icons/xxxhdpi.png"
   inkscape:export-xdpi="96"
   inkscape:export-ydpi="96"
   inkscape:version="1.2.1 (9c6d41e, 2022-07-14)"
   width="192"
   height="192"
   xmlns:inkscape="http://www.inkscape.org/namespaces/inkscape"
   xmlns:sodipodi="http://sodipodi.sourceforge.net/DTD/sodipodi-0.dtd"
   xmlns="http://www.w3.org/2000/svg"
   xmlns:svg="http://www.w3.org/2000/svg"
   xmlns:rdf="http://www.w3.org/1999/02/22-rdf-syntax-ns#"
   xmlns:cc="http://creativecommons.org/ns#"
   xmlns:dc="http://purl.org/dc/elements/1.1/">
  <metadata
     id="metadata14">
    <rdf:RDF>
      <cc:Work
         rdf:about="">
        <dc:format>image/svg+xml</dc:format>
        <dc:type
           rdf:resource="http://purl.org/dc/dcmitype/StillImage" />
      </cc:Work>
    </rdf:RDF>
  </metadata>
  <defs
     id="defs12" />
  <sodipodi:namedview
     pagecolor="#ffffff"
     bordercolor="#666666"
     borderopacity="1"
     objecttolerance="10"
     gridtolerance="10"
     guidetolerance="10"
     inkscape:pageopacity="0"
     inkscape:pageshadow="2"
     inkscape:window-width="1309"
     inkscape:window-height="789"
     id="namedview10"
     showgrid="false"
     inkscape:zoom="2.9635417"
     inkscape:cx="95.831283"
     inkscape:cy="96"
     inkscape:window-x="0"
     inkscape:window-y="25"
     inkscape:window-maximized="0"
     inkscape:current-layer="svg8"
     inkscape:showpageshadow="2"
     inkscape:pagecheckerboard="0"
     inkscape:deskcolor="#d1d1d1" />
  <path
     fill="#ffffff"
     d="M 192,95.999985 A 96,95.999993 0 0 1 96,192 96,95.999993 0 0 1 0,95.999985 96,95.999993 0 0 1 96,0 96,95.999993 0 0 1 192,95.999985 Z"
     id="path2"
     style="stroke-width:0.1875" />
  <path
     fill="#1c1c1c"
     d="M 133.68073,133.31249 H 89.599929 v -5.34604 q 1.391248,-0.14646 3.368311,-0.3662 1.977033,-0.21968 3.002169,-0.73233 1.537688,-0.80557 2.196712,-2.34348 0.659008,-1.53789 0.659008,-4.54047 V 85.710672 q 0,-7.46984 -2.782481,-11.204744 -2.709296,-3.808151 -8.05464,-3.808151 -2.92896,0 -5.491807,0.878815 -2.489601,0.8788 -4.905992,2.563169 -2.123512,1.464663 -3.441528,3.002575 -1.244808,1.537896 -2.123505,2.70964 v 39.326414 q 0,2.56319 0.732241,4.32079 0.73224,1.68436 2.416384,2.56317 1.171599,0.65911 2.928959,1.17174 1.757377,0.51264 3.441545,0.73234 v 5.34604 H 37.025137 v -5.34604 q 1.8306,-0.14646 3.661199,-0.3662 1.903817,-0.29292 3.221849,-0.73232 2.343168,-0.80556 3.221848,-2.48994 0.878687,-1.68437 0.878687,-4.39401 V 77.362059 q 0,-2.27024 -1.171576,-4.467258 -1.171599,-2.197006 -3.075415,-3.58844 Q 42.443697,68.427568 40.393424,67.841696 38.416385,67.255825 36,67.036123 v -5.34605 L 70.927817,59.786 l 1.098359,1.098512 v 10.618864 h 0.29292 q 2.050273,-1.830845 4.979232,-4.394031 2.92896,-2.563153 5.418577,-4.174294 2.70928,-1.757611 7.102727,-3.002592 4.393424,-1.24496 9.372656,-1.24496 11.935502,0 17.866652,6.81071 6.00435,6.737503 6.00435,17.94224 v 35.884431 q 0,2.70965 0.80548,4.32079 0.80546,1.61112 3.00217,2.56316 1.17158,0.51264 2.85574,1.02528 1.75738,0.51264 3.95408,0.73234 z"
     id="path4"
     style="stroke-width:0.1875" />
  <path
     fill="#fbbd0d"
     d="m 155.95701,120.1148 c -0.29056,3.846 -1.9785,7.07232 -5.06378,9.67894 -3.03658,2.61029 -6.50198,3.7683 -10.39616,3.47402 -3.94284,-0.29796 -0.83414,-7.05395 -3.49644,-10.04596 -2.60998,-3.037 -10.17912,-1.3918 -9.88488,-5.28649 0.29424,-3.89468 1.95964,-7.14717 4.99624,-9.75747 3.08897,-2.65531 6.60488,-3.83398 10.54772,-3.53602 3.89418,0.29428 7.14441,1.98425 9.75068,5.06992 2.65498,3.08938 3.83717,6.55705 3.54662,10.40306 z"
     id="path6"
     style="stroke-width:0.1875" />
</svg>
